<mxfile host="65bd71144e">
    <diagram id="xFoVDVDbjY-C2-s938Fz" name="Page-1">
        <mxGraphModel dx="1980" dy="779" grid="1" gridSize="10" guides="1" tooltips="1" connect="1" arrows="1" fold="1" page="1" pageScale="1" pageWidth="850" pageHeight="1100" math="0" shadow="0">
            <root>
                <mxCell id="0"/>
                <mxCell id="1" parent="0"/>
                <mxCell id="10" style="edgeStyle=none;html=1;" parent="1" source="2" target="3" edge="1">
                    <mxGeometry relative="1" as="geometry"/>
                </mxCell>
                <mxCell id="11" style="edgeStyle=none;html=1;entryX=0;entryY=0;entryDx=0;entryDy=0;" parent="1" source="2" target="4" edge="1">
                    <mxGeometry relative="1" as="geometry"/>
                </mxCell>
                <mxCell id="2" value="1" style="ellipse;whiteSpace=wrap;html=1;" parent="1" vertex="1">
                    <mxGeometry x="370" width="115" height="80" as="geometry"/>
                </mxCell>
                <mxCell id="12" style="edgeStyle=none;html=1;entryX=0.5;entryY=0;entryDx=0;entryDy=0;" parent="1" source="3" target="5" edge="1">
                    <mxGeometry relative="1" as="geometry"/>
                </mxCell>
                <mxCell id="15" style="edgeStyle=none;html=1;entryX=0.5;entryY=0;entryDx=0;entryDy=0;" parent="1" source="3" target="6" edge="1">
                    <mxGeometry relative="1" as="geometry"/>
                </mxCell>
                <mxCell id="3" value="2" style="ellipse;whiteSpace=wrap;html=1;" parent="1" vertex="1">
                    <mxGeometry x="130" y="30" width="120" height="80" as="geometry"/>
                </mxCell>
                <mxCell id="13" style="edgeStyle=none;html=1;entryX=0.5;entryY=0;entryDx=0;entryDy=0;" parent="1" source="4" target="8" edge="1">
                    <mxGeometry relative="1" as="geometry"/>
                </mxCell>
                <mxCell id="14" style="edgeStyle=none;html=1;entryX=0.5;entryY=0;entryDx=0;entryDy=0;" parent="1" source="4" target="7" edge="1">
                    <mxGeometry relative="1" as="geometry"/>
                </mxCell>
                <mxCell id="4" value="3" style="ellipse;whiteSpace=wrap;html=1;" parent="1" vertex="1">
                    <mxGeometry x="680" y="50" width="120" height="80" as="geometry"/>
                </mxCell>
                <mxCell id="18" style="edgeStyle=none;html=1;entryX=0.5;entryY=0;entryDx=0;entryDy=0;" parent="1" source="5" target="16" edge="1">
                    <mxGeometry relative="1" as="geometry"/>
                </mxCell>
                <mxCell id="19" style="edgeStyle=none;html=1;entryX=0.5;entryY=0;entryDx=0;entryDy=0;" parent="1" source="5" target="17" edge="1">
                    <mxGeometry relative="1" as="geometry"/>
                </mxCell>
                <mxCell id="5" value="4" style="ellipse;whiteSpace=wrap;html=1;" parent="1" vertex="1">
                    <mxGeometry x="-20" y="120" width="120" height="80" as="geometry"/>
                </mxCell>
                <mxCell id="22" style="edgeStyle=none;html=1;entryX=0.5;entryY=0;entryDx=0;entryDy=0;" parent="1" source="6" target="20" edge="1">
                    <mxGeometry relative="1" as="geometry"/>
                </mxCell>
                <mxCell id="23" style="edgeStyle=none;html=1;entryX=0.5;entryY=0;entryDx=0;entryDy=0;" parent="1" source="6" target="21" edge="1">
                    <mxGeometry relative="1" as="geometry"/>
                </mxCell>
                <mxCell id="6" value="5" style="ellipse;whiteSpace=wrap;html=1;" parent="1" vertex="1">
                    <mxGeometry x="280" y="120" width="120" height="80" as="geometry"/>
                </mxCell>
                <mxCell id="25" style="edgeStyle=none;html=1;entryX=0.5;entryY=0;entryDx=0;entryDy=0;" parent="1" source="7" target="24" edge="1">
                    <mxGeometry relative="1" as="geometry"/>
                </mxCell>
                <mxCell id="27" style="edgeStyle=none;html=1;entryX=0.5;entryY=0;entryDx=0;entryDy=0;" parent="1" source="7" target="26" edge="1">
                    <mxGeometry relative="1" as="geometry"/>
                </mxCell>
                <mxCell id="7" value="6" style="ellipse;whiteSpace=wrap;html=1;" parent="1" vertex="1">
                    <mxGeometry x="560" y="120" width="120" height="80" as="geometry"/>
                </mxCell>
                <mxCell id="29" style="edgeStyle=none;html=1;entryX=0.5;entryY=0;entryDx=0;entryDy=0;" parent="1" source="8" target="28" edge="1">
                    <mxGeometry relative="1" as="geometry"/>
                </mxCell>
                <mxCell id="31" style="edgeStyle=none;html=1;entryX=0.5;entryY=0;entryDx=0;entryDy=0;" parent="1" source="8" target="30" edge="1">
                    <mxGeometry relative="1" as="geometry"/>
                </mxCell>
                <mxCell id="8" value="7" style="ellipse;whiteSpace=wrap;html=1;" parent="1" vertex="1">
                    <mxGeometry x="820" y="120" width="120" height="80" as="geometry"/>
                </mxCell>
                <mxCell id="16" value="8" style="ellipse;whiteSpace=wrap;html=1;" parent="1" vertex="1">
                    <mxGeometry x="-140" y="230" width="120" height="80" as="geometry"/>
                </mxCell>
                <mxCell id="17" value="9" style="ellipse;whiteSpace=wrap;html=1;" parent="1" vertex="1">
                    <mxGeometry x="60" y="230" width="120" height="80" as="geometry"/>
                </mxCell>
                <mxCell id="20" value="10" style="ellipse;whiteSpace=wrap;html=1;" parent="1" vertex="1">
                    <mxGeometry x="200" y="230" width="120" height="80" as="geometry"/>
                </mxCell>
                <mxCell id="21" value="11" style="ellipse;whiteSpace=wrap;html=1;" parent="1" vertex="1">
                    <mxGeometry x="340" y="230" width="120" height="80" as="geometry"/>
                </mxCell>
                <mxCell id="24" value="12" style="ellipse;whiteSpace=wrap;html=1;" parent="1" vertex="1">
                    <mxGeometry x="500" y="220" width="120" height="80" as="geometry"/>
                </mxCell>
                <mxCell id="26" value="13" style="ellipse;whiteSpace=wrap;html=1;" parent="1" vertex="1">
                    <mxGeometry x="660" y="220" width="120" height="80" as="geometry"/>
                </mxCell>
                <mxCell id="28" value="14" style="ellipse;whiteSpace=wrap;html=1;" parent="1" vertex="1">
                    <mxGeometry x="790" y="220" width="120" height="80" as="geometry"/>
                </mxCell>
                <mxCell id="30" value="15" style="ellipse;whiteSpace=wrap;html=1;" parent="1" vertex="1">
                    <mxGeometry x="940" y="220" width="120" height="80" as="geometry"/>
                </mxCell>
            </root>
        </mxGraphModel>
    </diagram>
    <diagram id="2KaBpxNHWqBolgGPsA5_" name="Page-2">
        <mxGraphModel dx="732" dy="779" grid="1" gridSize="10" guides="1" tooltips="1" connect="1" arrows="1" fold="1" page="1" pageScale="1" pageWidth="850" pageHeight="1100" math="0" shadow="0">
            <root>
                <mxCell id="0"/>
                <mxCell id="1" parent="0"/>
                <mxCell id="CdhUkKpE7ciUiJS2DX4_-9" style="edgeStyle=none;html=1;entryX=0;entryY=0;entryDx=0;entryDy=0;strokeColor=none;" parent="1" source="CdhUkKpE7ciUiJS2DX4_-1" target="CdhUkKpE7ciUiJS2DX4_-4" edge="1">
                    <mxGeometry relative="1" as="geometry"/>
                </mxCell>
                <mxCell id="CdhUkKpE7ciUiJS2DX4_-10" style="edgeStyle=none;html=1;entryX=0.5;entryY=0;entryDx=0;entryDy=0;strokeColor=none;" parent="1" source="CdhUkKpE7ciUiJS2DX4_-1" target="CdhUkKpE7ciUiJS2DX4_-4" edge="1">
                    <mxGeometry relative="1" as="geometry"/>
                </mxCell>
                <mxCell id="CdhUkKpE7ciUiJS2DX4_-11" value="3" style="edgeStyle=none;html=1;entryX=0.5;entryY=0;entryDx=0;entryDy=0;strokeColor=#F0F0F0;endArrow=none;endFill=0;" parent="1" source="CdhUkKpE7ciUiJS2DX4_-1" target="CdhUkKpE7ciUiJS2DX4_-4" edge="1">
                    <mxGeometry relative="1" as="geometry"/>
                </mxCell>
                <mxCell id="CdhUkKpE7ciUiJS2DX4_-13" value="1" style="edgeStyle=none;html=1;entryX=0;entryY=0.5;entryDx=0;entryDy=0;strokeColor=#F0F0F0;endArrow=none;endFill=0;" parent="1" source="CdhUkKpE7ciUiJS2DX4_-1" target="CdhUkKpE7ciUiJS2DX4_-2" edge="1">
                    <mxGeometry relative="1" as="geometry"/>
                </mxCell>
                <mxCell id="CdhUkKpE7ciUiJS2DX4_-1" value="A" style="ellipse;whiteSpace=wrap;html=1;" parent="1" vertex="1">
                    <mxGeometry x="70" y="120" width="120" height="80" as="geometry"/>
                </mxCell>
                <mxCell id="CdhUkKpE7ciUiJS2DX4_-14" value="5" style="edgeStyle=none;html=1;entryX=0;entryY=0.5;entryDx=0;entryDy=0;strokeColor=#F0F0F0;endArrow=none;endFill=0;" parent="1" source="CdhUkKpE7ciUiJS2DX4_-2" target="CdhUkKpE7ciUiJS2DX4_-3" edge="1">
                    <mxGeometry relative="1" as="geometry"/>
                </mxCell>
                <mxCell id="CdhUkKpE7ciUiJS2DX4_-19" value="2" style="edgeStyle=none;html=1;entryX=0.5;entryY=0;entryDx=0;entryDy=0;strokeColor=#F0F0F0;endArrow=none;endFill=0;" parent="1" source="CdhUkKpE7ciUiJS2DX4_-2" target="CdhUkKpE7ciUiJS2DX4_-5" edge="1">
                    <mxGeometry relative="1" as="geometry"/>
                </mxCell>
                <mxCell id="CdhUkKpE7ciUiJS2DX4_-2" value="C" style="ellipse;whiteSpace=wrap;html=1;" parent="1" vertex="1">
                    <mxGeometry x="290" y="120" width="120" height="80" as="geometry"/>
                </mxCell>
                <mxCell id="CdhUkKpE7ciUiJS2DX4_-15" value="3" style="edgeStyle=none;html=1;entryX=0.5;entryY=0;entryDx=0;entryDy=0;strokeColor=#F0F0F0;endArrow=none;endFill=0;" parent="1" source="CdhUkKpE7ciUiJS2DX4_-3" target="CdhUkKpE7ciUiJS2DX4_-6" edge="1">
                    <mxGeometry relative="1" as="geometry"/>
                </mxCell>
                <mxCell id="CdhUkKpE7ciUiJS2DX4_-3" value="F" style="ellipse;whiteSpace=wrap;html=1;" parent="1" vertex="1">
                    <mxGeometry x="500" y="120" width="120" height="80" as="geometry"/>
                </mxCell>
                <mxCell id="CdhUkKpE7ciUiJS2DX4_-12" value="5" style="edgeStyle=none;html=1;entryX=0.5;entryY=0;entryDx=0;entryDy=0;strokeColor=#F0F0F0;endArrow=none;endFill=0;" parent="1" source="CdhUkKpE7ciUiJS2DX4_-4" target="CdhUkKpE7ciUiJS2DX4_-7" edge="1">
                    <mxGeometry relative="1" as="geometry"/>
                </mxCell>
                <mxCell id="CdhUkKpE7ciUiJS2DX4_-20" value="1" style="edgeStyle=none;html=1;entryX=0;entryY=0.5;entryDx=0;entryDy=0;strokeColor=#F0F0F0;endArrow=none;endFill=0;" parent="1" source="CdhUkKpE7ciUiJS2DX4_-4" target="CdhUkKpE7ciUiJS2DX4_-5" edge="1">
                    <mxGeometry relative="1" as="geometry"/>
                </mxCell>
                <mxCell id="CdhUkKpE7ciUiJS2DX4_-4" value="B" style="ellipse;whiteSpace=wrap;html=1;" parent="1" vertex="1">
                    <mxGeometry x="170" y="280" width="120" height="80" as="geometry"/>
                </mxCell>
                <mxCell id="CdhUkKpE7ciUiJS2DX4_-17" value="2" style="edgeStyle=none;html=1;entryX=0;entryY=1;entryDx=0;entryDy=0;strokeColor=#F0F0F0;endArrow=none;endFill=0;" parent="1" source="CdhUkKpE7ciUiJS2DX4_-5" target="CdhUkKpE7ciUiJS2DX4_-3" edge="1">
                    <mxGeometry relative="1" as="geometry"/>
                </mxCell>
                <mxCell id="CdhUkKpE7ciUiJS2DX4_-18" value="4" style="edgeStyle=none;html=1;entryX=0.5;entryY=0;entryDx=0;entryDy=0;strokeColor=#F0F0F0;endArrow=none;endFill=0;" parent="1" source="CdhUkKpE7ciUiJS2DX4_-5" target="CdhUkKpE7ciUiJS2DX4_-8" edge="1">
                    <mxGeometry relative="1" as="geometry"/>
                </mxCell>
                <mxCell id="CdhUkKpE7ciUiJS2DX4_-5" value="D" style="ellipse;whiteSpace=wrap;html=1;" parent="1" vertex="1">
                    <mxGeometry x="400" y="280" width="120" height="80" as="geometry"/>
                </mxCell>
                <mxCell id="CdhUkKpE7ciUiJS2DX4_-16" value="1" style="edgeStyle=none;html=1;entryX=1;entryY=0;entryDx=0;entryDy=0;strokeColor=#F0F0F0;endArrow=none;endFill=0;" parent="1" source="CdhUkKpE7ciUiJS2DX4_-6" target="CdhUkKpE7ciUiJS2DX4_-8" edge="1">
                    <mxGeometry relative="1" as="geometry"/>
                </mxCell>
                <mxCell id="CdhUkKpE7ciUiJS2DX4_-6" value="H" style="ellipse;whiteSpace=wrap;html=1;" parent="1" vertex="1">
                    <mxGeometry x="640" y="280" width="120" height="80" as="geometry"/>
                </mxCell>
                <mxCell id="CdhUkKpE7ciUiJS2DX4_-21" value="2" style="edgeStyle=none;html=1;entryX=0;entryY=0.5;entryDx=0;entryDy=0;strokeColor=#F0F0F0;endArrow=none;endFill=0;" parent="1" source="CdhUkKpE7ciUiJS2DX4_-7" target="CdhUkKpE7ciUiJS2DX4_-8" edge="1">
                    <mxGeometry relative="1" as="geometry"/>
                </mxCell>
                <mxCell id="CdhUkKpE7ciUiJS2DX4_-7" value="G" style="ellipse;whiteSpace=wrap;html=1;" parent="1" vertex="1">
                    <mxGeometry x="90" y="430" width="120" height="80" as="geometry"/>
                </mxCell>
                <mxCell id="CdhUkKpE7ciUiJS2DX4_-8" value="E" style="ellipse;whiteSpace=wrap;html=1;" parent="1" vertex="1">
                    <mxGeometry x="460" y="430" width="120" height="80" as="geometry"/>
                </mxCell>
            </root>
        </mxGraphModel>
    </diagram>
</mxfile>